HIERARCHY
ROOT Hips
{
	OFFSET 0.000000 0.000000 0.000000
	CHANNELS 6 Xposition Yposition Zposition Zrotation Yrotation Xrotation 
	JOINT LHipJoint
	{
		OFFSET 0.000000 0.000000 0.000000
		CHANNELS 3 Zrotation Yrotation Xrotation
		JOINT LeftUpLeg
		{
			OFFSET 1.363060 -1.794630 0.839290
			CHANNELS 3 Zrotation Yrotation Xrotation
			JOINT LeftLeg
			{
				OFFSET 2.448110 -6.726130 0.000000
				CHANNELS 3 Zrotation Yrotation Xrotation
				JOINT LeftFoot
				{
					OFFSET 2.562200 -7.039590 0.000000
					CHANNELS 3 Zrotation Yrotation Xrotation
					JOINT LeftToeBase
					{
						OFFSET 0.157640 -0.433110 2.322550
						CHANNELS 3 Zrotation Yrotation Xrotation
						End Site
						{
							OFFSET 0.000000 0.000000 0.000000
						}
					}
				}
			}
		}
	}
	JOINT RHipJoint
	{
		OFFSET 0.000000 0.000000 0.000000
		CHANNELS 3 Zrotation Yrotation Xrotation
		JOINT RightUpLeg
		{
			OFFSET -1.305520 -1.794630 0.839290
			CHANNELS 3 Zrotation Yrotation Xrotation
			JOINT RightLeg
			{
				OFFSET -2.542530 -6.985550 0.000000
				CHANNELS 3 Zrotation Yrotation Xrotation
				JOINT RightFoot
				{
					OFFSET -2.568260 -7.056230 0.000000
					CHANNELS 3 Zrotation Yrotation Xrotation
					JOINT RightToeBase
					{
						OFFSET -0.164730 -0.452590 2.363150
						CHANNELS 3 Zrotation Yrotation Xrotation
						End Site
						{
							OFFSET 0.000000 0.000000 0.000000
						}
					}
				}
			}
		}
	}
	JOINT LowerBack
	{
		OFFSET 0.000000 0.000000 0.000000
		CHANNELS 3 Zrotation Yrotation Xrotation
		JOINT Spine
		{
			OFFSET 0.028270 2.035590 -0.193380
			CHANNELS 3 Zrotation Yrotation Xrotation
			JOINT Spine1
			{
				OFFSET 0.056720 2.048850 -0.042750
				CHANNELS 3 Zrotation Yrotation Xrotation
				JOINT Neck
				{
					OFFSET 0.000000 0.000000 0.000000
					CHANNELS 3 Zrotation Yrotation Xrotation
					JOINT Neck1
					{
						OFFSET -0.054170 1.746240 0.172020
						CHANNELS 3 Zrotation Yrotation Xrotation
						JOINT Head
						{
							OFFSET 0.104070 1.761360 -0.123970
							CHANNELS 3 Zrotation Yrotation Xrotation
							End Site
							{
								OFFSET 0.000000 0.000000 0.000000
							}
						}
					}
				}
				JOINT LeftShoulder
				{
					OFFSET 0.000000 0.000000 0.000000
					CHANNELS 3 Zrotation Yrotation Xrotation
					JOINT LeftArm
					{
						OFFSET 3.362410 1.200890 -0.311210
						CHANNELS 3 Zrotation Yrotation Xrotation
						JOINT LeftForeArm
						{
							OFFSET 4.983000 -0.000000 -0.000000
							CHANNELS 3 Zrotation Yrotation Xrotation
							JOINT LeftHand
							{
								OFFSET 3.483560 -0.000000 -0.000000
								CHANNELS 3 Zrotation Yrotation Xrotation
								JOINT LeftFingerBase
								{
									OFFSET 0.000000 0.000000 0.000000
									CHANNELS 3 Zrotation Yrotation Xrotation
									JOINT LeftHandIndex1
									{
										OFFSET 0.715260 -0.000000 -0.000000
										CHANNELS 3 Zrotation Yrotation Xrotation
										End Site
										{
											OFFSET 0.000000 0.000000 0.000000
										}
									}
								}
								JOINT LThumb
								{
									OFFSET 0.000000 0.000000 0.000000
									CHANNELS 3 Zrotation Yrotation Xrotation
									End Site
									{
										OFFSET 0.000000 0.000000 0.000000
									}
								}
							}
						}
					}
				}
				JOINT RightShoulder
				{
					OFFSET 0.000000 0.000000 0.000000
					CHANNELS 3 Zrotation Yrotation Xrotation
					JOINT RightArm
					{
						OFFSET -3.136600 1.374050 -0.404650
						CHANNELS 3 Zrotation Yrotation Xrotation
						JOINT RightForeArm
						{
							OFFSET -5.241900 -0.000000 -0.000000
							CHANNELS 3 Zrotation Yrotation Xrotation
							JOINT RightHand
							{
								OFFSET -3.444170 -0.000000 -0.000000
								CHANNELS 3 Zrotation Yrotation Xrotation
								JOINT RightFingerBase
								{
									OFFSET 0.000000 0.000000 0.000000
									CHANNELS 3 Zrotation Yrotation Xrotation
									JOINT RightHandIndex1
									{
										OFFSET -0.622530 -0.000000 -0.000000
										CHANNELS 3 Zrotation Yrotation Xrotation
										End Site
										{
											OFFSET 0.000000 0.000000 0.000000
										}
									}
								}
								JOINT RThumb
								{
									OFFSET 0.000000 0.000000 0.000000
									CHANNELS 3 Zrotation Yrotation Xrotation
									End Site
									{
										OFFSET 0.000000 0.000000 0.000000
									}
								}
							}
						}
					}
				}
			}
		}
	}
}
MOTION
Frames: 10
Frame Time: 0.008333
9.159994 17.830035 -5.777965 0.499331 -14.509631 7.233427 -6.661493 0.966300 2.616018 -7.515136 -9.818297 -19.243646 2.002037 9.896133 29.787016 -0.655042 5.179480 -10.064426 0.322300 -3.649400 -10.092300 3.273569 -1.435741 1.693899 11.347508 19.062706 -16.344856 -3.107645 -9.467521 30.901587 1.461055 -11.758122 -13.693036 -0.041600 -1.316600 3.620400 -1.671111 -0.836658 -1.449372 0.817341 -1.099100 -0.551611 0.231872 -0.992522 -0.021601 -1.912947 1.232760 -16.047267 -3.481524 2.082768 10.958951 -1.083800 0.483100 7.425200 0.342687 -5.056119 0.259512 -38.512711 -52.000282 2.240255 34.941513 -39.002711 -14.783517 1.056702 -1.571915 -35.141388 2.784679 23.310169 1.203900 -7.125000 0.000000 0.000000 -27.513100 53.020000 -5.777000 -0.687284 3.827101 0.481727 90.011367 33.959823 64.738446 -91.184070 60.231537 -63.800715 1.043354 0.039093 -6.284297 -27.180703 20.424943 -10.554400 7.125000 0.000000 0.000000 0.166200 -7.189000 0.144100 
9.163432 17.829151 -5.783564 0.251952 -14.422174 7.385011 -6.632892 0.954940 2.593161 -7.255792 -9.814065 -19.448895 2.034729 9.943206 29.927298 -0.651185 5.153297 -9.994968 0.295200 -3.493500 -9.655800 3.273740 -1.439312 1.695184 11.600924 19.041698 -16.372275 -3.085396 -9.419491 30.770088 1.487599 -11.855741 -13.608844 -0.028200 -1.083500 2.978500 -1.406521 -0.902180 -1.414142 0.953766 -1.192790 -0.774619 0.203458 -1.023021 -0.226976 -2.305275 1.191342 -15.736684 -3.243149 2.083791 11.045986 -0.936500 0.484500 7.386300 0.306789 -4.993984 0.345478 -39.063144 -51.326059 3.570899 35.485481 -39.443682 -15.247256 1.119885 -1.534746 -35.174472 1.516127 23.904126 0.646200 -7.125000 0.000000 0.000000 -29.156600 53.309300 -6.387000 -0.660764 3.798016 0.450298 90.281162 34.012848 65.275051 -89.716100 60.161890 -62.570641 1.050974 0.037072 -6.100524 -27.111478 20.626476 -10.623700 7.125000 0.000000 0.000000 0.230300 -6.983900 0.200600 
9.168049 17.826401 -5.785725 0.194999 -14.330940 7.466006 -6.626792 0.944089 2.581591 -7.197886 -9.794294 -19.558768 2.036574 9.941651 29.928409 -0.622509 5.055833 -10.018042 0.338400 -3.738100 -10.341100 3.276614 -1.443662 1.696144 11.621768 19.108247 -16.404443 -3.081597 -9.414296 30.765239 1.474334 -11.884165 -13.887635 -0.026400 -1.048800 2.883200 -1.389658 -0.930135 -1.431744 1.070095 -1.235375 -0.910981 0.292922 -1.033923 -0.319615 -2.615238 1.098635 -15.624365 -3.113897 2.013992 11.135655 -0.847100 0.444700 7.384900 0.270635 -4.935402 0.432433 -39.722924 -50.708881 5.134633 36.219059 -40.003571 -15.848441 1.116956 -1.512174 -35.396289 1.821407 23.708949 0.771800 -7.125000 0.000000 0.000000 -28.732700 53.175500 -6.182800 -0.639009 3.761710 0.418973 90.461851 34.137349 65.598898 -88.641480 60.097709 -61.675853 1.045037 0.059857 -5.726984 -27.281206 19.908012 -10.331900 7.125000 0.000000 0.000000 0.031100 -7.769900 0.026600 
9.171094 17.824731 -5.778063 0.530531 -14.202557 7.325550 -6.644745 0.930365 2.582232 -7.587542 -9.691324 -19.547290 2.056107 9.952873 30.010169 -0.556537 4.815490 -10.006632 0.369400 -3.904000 -10.806800 3.272557 -1.433060 1.711289 11.231975 18.744255 -16.429054 -3.062410 -9.424548 30.722644 1.409777 -11.615318 -14.027312 -0.026600 -1.053500 2.896000 -1.703975 -0.820042 -1.742388 0.900273 -1.090258 -0.674843 0.295652 -0.976413 0.070451 -2.503173 0.872646 -15.820349 -3.060670 1.689410 11.134438 -0.878900 0.303000 7.411500 0.272928 -4.948845 0.434718 -40.133257 -51.005087 6.460168 36.822299 -40.401176 -16.327338 1.075950 -1.527168 -35.445453 3.168544 23.373664 1.356500 -7.125000 0.000000 0.000000 -27.206900 53.116600 -5.771500 -0.646079 3.768287 0.404798 90.551987 34.666756 65.313385 -87.629534 60.025266 -60.801665 1.045178 0.080010 -5.333166 -27.822105 19.353401 -10.269000 7.125000 0.000000 0.000000 -0.388800 -8.311200 -0.328500 
9.172862 17.825222 -5.778358 0.589210 -14.125203 7.264397 -6.643387 0.924342 2.582383 -7.666013 -9.627064 -19.543294 2.066045 9.963242 30.050616 -0.539357 4.739465 -9.936214 0.359600 -3.852600 -10.662200 3.263656 -1.421379 1.721596 11.168070 18.322764 -16.544758 -3.059267 -9.431867 30.706470 1.381522 -11.357933 -13.685540 -0.018200 -0.871500 2.395300 -1.769186 -0.781928 -1.841150 0.783019 -1.039962 -0.626940 0.207190 -0.956613 0.154409 -2.271675 0.785876 -15.629553 -3.005470 1.502956 11.102570 -0.917600 0.238100 7.362700 0.269548 -4.970035 0.425131 -40.662263 -51.262834 7.340474 36.906177 -40.398368 -16.373124 1.022062 -1.550895 -34.880732 4.292747 22.795429 1.814300 -7.125000 0.000000 0.000000 -25.747100 52.795100 -5.216300 -0.640519 3.787933 0.394688 90.898705 34.911394 65.351765 -86.535334 59.940139 -59.858388 1.051822 0.076773 -4.931047 -28.026604 19.476061 -10.414900 7.125000 0.000000 0.000000 -0.509600 -8.144600 -0.432300 
9.175121 17.824829 -5.792404 0.159443 -14.086775 7.413290 -6.613092 0.928176 2.573928 -7.188678 -9.679087 -19.643090 2.058121 9.965446 30.010766 -0.588254 4.899881 -9.848419 0.370300 -3.908800 -10.820300 3.263025 -1.431036 1.713082 11.642516 18.510287 -16.599253 -3.077290 -9.420848 30.742903 1.444582 -11.608499 -13.498636 -0.013900 -0.761000 2.091400 -1.415091 -0.930526 -1.717756 0.973564 -1.242591 -0.860519 0.167997 -1.041243 -0.120851 -2.392012 0.901199 -14.997490 -2.887710 1.637654 10.978747 -0.846500 0.313500 7.204000 0.221767 -4.941959 0.482312 -41.583667 -50.677941 7.852021 36.771423 -40.267534 -16.242459 0.983591 -1.539057 -33.965881 4.367106 21.748997 1.768000 -7.125000 0.000000 0.000000 -25.047000 51.837500 -4.449000 -0.605025 3.777447 0.371695 91.473588 34.824708 66.187280 -85.341282 59.839432 -58.852572 1.054851 0.075250 -4.351668 -28.082015 19.432761 -10.411900 7.125000 0.000000 0.000000 -0.553800 -8.193100 -0.469200 
9.180229 17.822865 -5.792993 0.211353 -13.863509 7.368089 -6.613144 0.928605 2.569037 -7.265359 -9.679167 -19.634683 2.057048 9.958003 29.993270 -0.602688 4.909291 -9.642038 0.368200 -3.897500 -10.788400 3.262688 -1.420397 1.716444 11.575347 18.305273 -16.610239 -3.078890 -9.437527 30.771534 1.445700 -11.644272 -13.576419 -0.011900 -0.705200 1.937900 -1.368021 -0.759976 -1.613959 0.769102 -1.013828 -0.785031 -0.075505 -0.930381 -0.130637 -1.924099 0.608464 -15.424372 -2.901625 1.168508 11.222185 -0.972300 0.112700 7.356400 0.202735 -4.962723 0.463258 -42.668278 -50.987794 9.294317 36.883055 -40.246287 -16.338767 0.996850 -1.503697 -33.106415 3.269728 20.840683 1.255300 -7.125000 0.000000 0.000000 -25.594800 50.810800 -3.883700 -0.603372 3.816706 0.357028 91.773398 35.238652 65.713410 -84.077509 59.713887 -57.754801 1.047202 0.096984 -4.003807 -28.347264 18.771148 -10.165900 7.125000 0.000000 0.000000 -0.806600 -8.907600 -0.672000 
9.187596 17.823552 -5.786314 0.913694 -13.532887 7.129303 -6.660348 0.910808 2.566002 -8.041171 -9.697929 -19.552829 2.068781 9.930459 30.017507 -0.562676 4.725249 -9.485968 0.350000 -3.801300 -10.518300 3.255311 -1.402885 1.758310 10.763167 17.481593 -16.786484 -3.062052 -9.485291 30.771253 1.358850 -11.204639 -13.536154 -0.011300 -0.685300 1.883400 -1.959069 -1.043441 -1.702752 0.726537 -1.399206 -0.796143 0.230134 -1.127614 -0.040843 -2.464770 0.660216 -15.215988 -2.775401 1.336084 11.155566 -0.822300 0.172700 7.292600 0.177218 -4.947530 0.527902 -42.750634 -50.475628 9.867587 36.987500 -40.362497 -16.458533 0.972967 -1.466623 -33.050187 3.343164 19.692275 1.218700 -7.125000 0.000000 0.000000 -24.890700 49.745900 -3.082700 -0.583625 3.786786 0.332453 92.116734 35.616459 66.730809 -82.793969 59.580068 -56.659421 1.043762 0.114281 -4.043593 -28.498905 18.409648 -10.030000 7.125000 0.000000 0.000000 -0.950000 -9.300200 -0.784100 
9.191819 17.825910 -5.797512 1.114503 -13.409575 7.113776 -6.672126 0.908750 2.548703 -8.237711 -9.777822 -19.609540 2.064714 9.909968 29.984768 -0.563913 4.709773 -9.408908 0.359800 -3.853500 -10.664900 3.257380 -1.390446 1.759445 10.513475 17.364147 -16.894198 -3.063787 -9.497983 30.788802 1.353940 -11.164317 -13.487377 -0.013600 -0.754200 2.072600 -2.102629 -0.740200 -1.659113 0.410304 -0.987244 -0.544358 0.004080 -0.937162 0.129624 -1.917243 0.262372 -16.102176 -2.762229 0.726786 11.422345 -0.966700 -0.089400 7.535200 0.194483 -5.007390 0.455743 -43.295531 -51.452807 11.396061 36.997886 -40.247072 -16.468156 0.953427 -1.474502 -32.328544 3.524795 19.212767 1.257300 -7.125000 0.000000 0.000000 -24.479100 49.334400 -2.766200 -0.609383 3.863079 0.331541 92.239414 36.543107 65.701690 -81.571641 59.436107 -55.527092 1.064359 0.087589 -3.725415 -29.185898 19.320010 -10.803100 7.125000 0.000000 0.000000 -1.286200 -8.142900 -1.091300 
9.191132 17.824535 -5.812442 0.773131 -13.361745 7.196368 -6.646511 0.911369 2.549424 -7.851571 -9.729245 -19.701585 2.055581 9.909524 29.935652 -0.607586 4.828019 -9.181733 0.381900 -3.968500 -10.988100 3.261046 -1.404398 1.749178 10.908369 17.713101 -16.815119 -3.073335 -9.480332 30.801195 1.406789 -11.443927 -13.538913 -0.019600 -0.903500 2.483300 -1.879348 -0.904636 -1.571710 0.601196 -1.211413 -0.715008 0.045344 -1.034478 -0.063325 -2.206549 0.360855 -15.313307 -2.529456 0.859455 11.069126 -0.825500 -0.011800 7.267400 0.158859 -4.973590 0.521285 -43.882935 -50.894516 11.951137 37.065265 -40.298960 -16.516541 0.943900 -1.481352 -31.354584 3.567627 19.308758 1.271800 -7.125000 0.000000 0.000000 -24.505300 49.426000 -2.827400 -0.579398 3.847796 0.306662 92.850544 36.721811 66.573778 -80.528839 59.310723 -54.642341 1.055702 0.099135 -3.983762 -28.882262 19.135005 -10.573200 7.125000 0.000000 0.000000 -1.111400 -8.412700 -0.937000 
